<svg xmlns="http://www.w3.org/2000/svg" height="512" width="512" style=""><rect id="backgroundrect" width="100%" height="100%" x="0" y="0" fill="none" stroke="none"/><g class="currentLayer" style=""><title>Layer 1</title><path d="m294.671875 63.957031c32.839844 5.085938 63.300781 16.640625 88.089844 33.410157 23.972656 16.21875 41.597656 36.539062 50.972656 58.769531 1.609375 3.824219 5.316406 6.121093 9.21875 6.121093 1.296875 0 2.613281-.253906 3.882813-.789062 5.089843-2.148438 7.472656-8.011719 5.328124-13.101562-10.882812-25.808594-31.007812-49.171876-58.195312-67.566407-27.21875-18.414062-60.496094-31.074219-96.238281-36.609375-5.449219-.84375-10.566407 2.894532-11.410157 8.355469-.847656 5.453125 2.890626 10.5625 8.351563 11.410156zm0 0" id="svg_1" class="" fill-opacity="1" fill="#b27acc"/><path d="m101.04014913963641,138.972656 c1.5252686456422804,3.796875 5.408111425317764,6.355469 9.370040966197848,6.160156 c3.9129715287629363,-0.19531200000000007 7.505825339501679,-3.066406 8.695910928456067,-6.9375 c1.2051499634981155,-3.917968 -0.14311204022538668,-8.492187 -3.3066306944079398,-10.988281 c-3.2727351285945776,-2.578125 -8.08203646064925,-2.671875 -11.441391983900248,-0.21093700000000007 c-3.5740226194691065,2.617187 -4.971243599429727,7.792968 -3.3179292163457275,11.976562 zm0,0 " id="svg_2" class="" fill-opacity="1" fill="#b27acc"/><path d="m148.53125 101.734375c1.597656 3.839844 5.695312 6.425781 9.855469 6.160156 4.011719-.261719 7.660156-3.121093 8.890625-6.945312 1.253906-3.890625-.152344-8.421875-3.378906-10.929688-3.410157-2.644531-8.484376-2.753906-11.984376-.21875-3.640624 2.636719-5.117187 7.773438-3.382812 11.933594zm0 0" id="svg_3" class="" fill-opacity="1" fill="#b27acc"/><path d="m200.289062 138.972656c1.582032 3.796875 5.613282 6.355469 9.722657 6.160156 4.058593-.195312 7.792969-3.066406 9.027343-6.9375 1.25-3.921874-.15625-8.496093-3.441406-10.988281-3.394531-2.578125-8.378906-2.671875-11.867187-.210937-3.703125 2.617187-5.15625 7.792968-3.441407 11.976562zm0 0" id="svg_4" class="" transform="translate(0,-0.7142857313156128) " fill-opacity="1" fill="#b27acc"/><path d="m512.7142857313156,316.9375 c0,-22.019531 -14.148438,-40.785156 -33.824219,-47.71875 v-25.023438 c3.164063,-1.1679680000000001 6.210938,-2.707031 9.074219,-4.628906 c11.386719,-7.652344 17.917969,-19.730468 17.917969,-33.148437 c0,-8.390625 -2.59375,-16.332031 -7.414063,-23.011719 c2.4375,-5.777344 3.171875,-12.191406 1.9882819999999999,-18.511719 c-8.5625,-45.796875 -37.96875,-87.71875 -82.800782,-118.050781 c-44.652344,-30.207031 -101.808594,-46.84375 -160.941406,-46.84375 s-116.289062,16.636719 -160.941406,46.84375 c-44.832032,30.328125 -74.238282,72.253906 -82.800782,118.050781 c-1.484374,7.925781 0.04296900000000001,15.996094 4.175782,22.773438 c-3.113282,5.710937 -4.734375,12.070312 -4.734375,18.75 c0,13.417969 6.53125,25.503906 17.921875,33.152343 c1.359375,0.914063 2.769531,1.730469 4.203125,2.476563 v27.171875 c-19.675781,6.933594 -33.824219,25.699219 -33.824219,47.71875 v2.03125 c0,14.585938 6.214844,27.742188 16.125,36.984375 c-2.890625,5.5625 -4.425781,11.75 -4.425781,18.121094 c0,10.011719 3.640625,19.273437 10.214843,26.511719 v36.085937 c0,38.550781 31.363282,69.917969 69.917969,69.917969 h328.335938 c38.554687,0 69.917969,-31.367188 69.917969,-69.917969 v-31.550781 c9.621093,-7.667969 15.082031,-18.796875 15.082031,-31.050782 c0,-7.683593 -2.164063,-14.957031 -6.207031,-21.246093 c8.097656,-8.96875 13.039062,-20.84375 13.039062,-33.855469 zm-20,0 v2.03125 c0,10.324219 -5.148438,19.464844 -13.007812,25.007812 c-5.121094,3.609376 -11.3125,5.578126 -17.578126,5.578126 h-155.066406 l63.769532,-63.203126 h91.292968 c16.867188,0 30.589844,13.722657 30.589844,30.585938 zm-340.433594,-30.585938 l1.585938,1.5898440000000003 l10.257812,10.253906 l-21.472656,21.476563 l-33.320312,-33.320313 zm94.417969,66.132813 l-61.351563,-61.347656 c0,-0.003907000000000001 -0.003906000000000001,-0.007813000000000002 -0.007812000000000002,-0.011719000000000004 l-4.773438,-4.773438 h161.8125 l-66.832031,66.09375 c-0.003906000000000001,0.003907000000000001 -0.007812000000000002,0.007813000000000002 -0.011719000000000004,0.015626 c-0.007812000000000002,0.007812000000000002 -0.019531000000000003,0.015624000000000002 -0.027343000000000006,0.023437000000000006 l-14.40625,14.40625 zm-214.070313,-183.917969 c7.574219,-40.5 33.980469,-77.847656 74.351563,-105.160156 c41.378906,-27.992188 94.554687,-43.40625 149.734375,-43.40625 s108.355469,15.414062 149.734375,43.40625 c40.371094,27.3125 66.773437,64.660156 74.351563,105.160156 c1.4023430000000001,7.511719 -4.597657,14.6875 -12.222657,14.6875 h-423.726562 c-7.636719,0 -13.625,-7.175781 -12.222657,-14.6875 zm0.523438,32.511719 c3.7148440000000003,1.4375 7.71875,2.175781 11.699219,2.175781 h423.726562 c5.519531,0 11.070313,-1.429687 15.882813,-4.136718 c0.941406,2.3125 1.421875,4.800781 1.421875,7.296874 c0,6.644532 -3.304688,12.675782 -9.070313,16.546876 c-5.894531,3.960937 -13.402344,4.910156 -20.144531,2.777343 c-3.332031,-1.054687 -6.476563,-2.414062 -9.914063,-3.148437 c-3.71875,-0.7968750000000001 -7.5234369999999995,-1.148438 -11.324218,-1.148438 c-17.863282,0 -27.449219,6.765625 -35.148438,12.199219 c-6.757812,4.7734369999999995 -12.09375,8.542969 -23.609375,8.542969 s-16.851562,-3.769532 -23.609375,-8.539063 c-7.699218,-5.441406 -17.28125,-12.203125 -35.148437,-12.203125 c-17.863281,0 -27.445313,6.765625 -35.144531,12.203125 c-6.7578130000000005,4.769531 -12.09375,8.539063 -23.609376,8.539063 c-11.515624,0 -16.855468,-3.769532 -23.613281,-8.542969 c-7.699219,-5.4375 -17.28125,-12.199219 -35.144531,-12.199219 s-27.449219,6.765625 -35.148438,12.199219 c-6.757812,4.7734369999999995 -12.097656,8.542969 -23.609374,8.542969 c-11.519532,0 -16.855469,-3.769532 -23.617188,-8.542969 c-7.699219,-5.4375 -17.28125,-12.199219 -35.148438,-12.199219 c-7.066406,0 -13.4375,1.199219 -19.480468,3.664063 c-7.136719,2.914062 -15.488282,2.175781 -21.910156,-2.140625 c-5.765626,-3.8710940000000003 -9.070313,-9.902344 -9.070313,-16.546875 c-0.003906000000000001,-1.8398440000000003 0.24609400000000003,-3.628907 0.7343750000000001,-5.339844 zm23.375,45.738281 c5.246094,-0.253906 10.167969,-1.578125 15.050781,-3.4375 c4.871094,-1.859375 10.183594,-2.226562 15.34375,-1.7656250000000002 c8.828125,0.785157 13.65625,4.195313 19.570313,8.367188 c7.699218,5.4375 17.28125,12.203125 35.148437,12.203125 c17.863281,0 27.445313,-6.765625 35.144531,-12.203125 c6.7578130000000005,-4.769531 12.097657,-8.539063 23.613282,-8.539063 s16.851562,3.769532 23.609375,8.539063 c7.699219,5.4375 17.285156,12.203125 35.148437,12.203125 c17.863282,0 27.445313,-6.765625 35.144532,-12.203125 c6.757812,-4.769531 12.097656,-8.539063 23.609374,-8.539063 c11.515626,0 16.855469,3.769532 23.613282,8.539063 c7.699218,5.4375 17.28125,12.203125 35.144531,12.203125 s27.445313,-6.765625 35.144531,-12.203125 c6.761719,-4.769531 12.097656,-8.539063 23.613282,-8.539063 c4.085937,0 8.097656,0.6796880000000002 11.90625,2.175782 c3.714843,1.460937 7.582031,2.511718 11.554687,2.976562 v19.761719 h-92.167969 c-0.003906000000000001,0 -0.003906000000000001,0 -0.007812000000000002,0 h-0.003906000000000001 h-210.253907 c-0.007812000000000002,0 -0.019531000000000003,0 -0.027343000000000006,0 c-0.011719000000000004,0 -0.023438000000000007,0 -0.03125000000000001,0 h-101.855469 v-19.484375 c0.664062,-0.003906000000000001 1.324219,-0.023438000000000007 1.988281,-0.054688000000000014 zm-35.8125,70.121094 c0,-16.863281 13.722656,-30.585938 30.585938,-30.585938 h29.75 l54.53125,54.535157 c1.875,1.875 4.417968,2.925781 7.070312,2.925781 s5.195312,-1.050781 7.070312,-2.925781 l28.546876,-28.546875 l37.214843,37.214844 h-164.183593 c-5.285157,0 -10.539063,-1.398438 -15.125,-4.019532 c-9.226563,-5.269531 -15.460938,-15.199218 -15.460938,-26.566406 zm13.351562,49.589844 c5.503907,1.996094 11.378907,3.027344 17.234376,3.027344 h184.183593 l18.546875,18.546874 c3.835938,3.8398440000000003 10.261719,3.847657 14.109375,0.03125000000000001 l18.746094,-18.578124 h175.238281 c5.640625,0 11.273438,-0.957032 16.601563,-2.800782 c1.117187,-0.38671800000000006 2.257812,-0.777344 3.308593,-1.3164060000000002 c0.3398440000000001,-0.17578100000000002 0.832032,-0.566406 1.234376,-0.5390619999999999 c0.554687,0.039062000000000006 0.6992180000000001,0.7460930000000001 0.898437,1.191406 c1.082031,2.386718 1.6601560000000002,5 1.7070310000000002,7.621094 c0.16796900000000006,9.433593 -6.625,17.328124 -15.496094,19.898437 c-5.082031,1.476563 -10.585937,1.148437 -15.484374,-0.851563 c-6.03125,-2.464843 -12.402344,-3.664062 -19.46875,-3.664062 c-17.863282,0 -27.445313,6.765625 -35.144532,12.203125 c-6.761718,4.7734369999999995 -12.097656,8.542969 -23.613281,8.542969 c-11.511719,0 -16.851563,-3.769532 -23.609375,-8.542969 c-7.699219,-5.4375 -17.28125,-12.203125 -35.144531,-12.203125 s-27.445313,6.765625 -35.148438,12.203125 c-6.757812,4.7734369999999995 -12.09375,8.542969 -23.609375,8.542969 s-16.851562,-3.769532 -23.613281,-8.542969 c-7.699219,-5.4375 -17.28125,-12.203125 -35.144531,-12.203125 c-17.863282,0 -27.445313,6.765625 -35.148438,12.203125 c-6.757812,4.7734369999999995 -12.09375,8.542969 -23.609375,8.542969 c-11.519531,0 -16.855469,-3.773438 -23.613281,-8.542969 c-7.703125,-5.4375 -17.285156,-12.203125 -35.152344,-12.203125 c-7.066406,0 -13.4375,1.199219 -19.476562,3.6679690000000003 c-6.527344,2.664062 -14.136719,2.3125 -20.296875,-1.15625 c-5.449219,-3.066407 -9.507813,-8.324219 -10.460938,-14.570313 c-0.285156,-1.8476560000000002 -0.300781,-3.738281 -0.05468700000000001,-5.59375 c0.070312,-0.5390619999999999 0.988281,-5.09375 1.4804680000000001,-4.9140619999999995 zm436.734376,70.144531 c0,27.523437 -22.394532,49.917969 -49.917969,49.917969 h-328.335938 c-27.523437,0 -49.917969,-22.394532 -49.917969,-49.917969 v-23.71875 c8.210938,2.328125 17.074219,2.164063 25.519531999999998,-0.6445310000000001 c0.171875,-0.05859400000000001 0.34375000000000006,-0.11718800000000001 0.511718,-0.171875 c0.769532,-0.26953099999999997 1.539063,-0.5468750000000001 2.296876,-0.8593750000000001 c3.59375,-1.46875 7.492187,-2.179688 11.917968,-2.179688 c11.519532,0 16.855469,3.765625 23.613282,8.539063 c7.703124,5.4375 17.285156,12.203125 35.152343,12.203125 c17.863281,0 27.445313,-6.765625 35.144531,-12.203125 c6.7578130000000005,-4.773438 12.097657,-8.539063 23.609376,-8.539063 c11.515624,0 16.855468,3.765625 23.613281,8.539063 c7.699219,5.4375 17.28125,12.203125 35.148437,12.203125 c17.863282,0 27.445313,-6.765625 35.144532,-12.203125 c6.757812,-4.773438 12.097656,-8.539063 23.609374,-8.539063 c11.515626,0 16.855469,3.765625 23.609376,8.539063 c7.699218,5.4375 17.285156,12.203125 35.148437,12.203125 s27.445313,-6.765625 35.144531,-12.203125 c6.7578130000000005,-4.773438 12.097656,-8.539063 23.613282,-8.539063 c2.980468,0 5.96875,0.33203200000000005 8.847656,1.132813 c2.738281,0.7617190000000001 5.324218,1.9648430000000001 8.0625,2.738281 c5.9453119999999995,1.6757810000000002 12.363281,2.03125 18.460937,1.039062 v22.664063 zm0,0 " id="svg_5" class="selected" fill-opacity="1" fill="#b27acc"/><path d="m223.05301319394684,103.16294646263123 c1.5820319999999999,3.796875 5.613282,6.375 9.726563,6.164063 c4.058593,-0.20703200000000005 7.78125,-3.066407 9.019531,-6.933594 c1.257812,-3.921875 -0.15234400000000006,-8.488282 -3.429688,-10.992188 c-3.386718,-2.5898440000000003 -8.382812,-2.6875 -11.863281,-0.21484400000000006 c-3.691406,2.617188 -5.199219,7.792969 -3.453125,11.976563 zm0,0 " id="svg_6" class="" fill-opacity="1" fill="#b27acc"/><path d="m271.019531 145.8125c1.582031 3.800781 5.609375 6.355469 9.71875 6.160156 4.0625-.195312 7.777344-3.070312 9.023438-6.933594 1.261719-3.917968-.152344-8.496093-3.433594-10.992187-3.394531-2.582031-8.382813-2.667969-11.867187-.210937-3.703126 2.617187-5.15625 7.792968-3.441407 11.976562zm0 0" id="svg_7" class="" fill-opacity="1" fill="#b27acc"/><path d="m245.488281 56.023438c3.558594 2.371093 8.5625 2.136718 11.871094-.574219 3.234375-2.648438 4.527344-7.339844 3.035156-11.253907-1.453125-3.800781-5.304687-6.507812-9.386719-6.488281-4.039062.023438-7.878906 2.675781-9.308593 6.457031-1.597657 4.234376.035156 9.335938 3.789062 11.859376zm0 0" id="svg_8" class="" fill-opacity="1" fill="#b27acc"/><polyline fill="#b27acc" stroke-dashoffset="" fill-rule="nonzero" marker-start="" marker-mid="" marker-end="" id="svg_9" points="14.571425417856233,160.05714601886527 15.28571114430616,160.05714601886527 " style="color: rgb(178, 122, 204);"/><polyline fill="#b27acc" stroke-dashoffset="" fill-rule="nonzero" marker-start="" marker-mid="" marker-end="" id="svg_10" points="511.71429102700597,318.62857729074926 511.71429102700597,319.3428630171992 511.71429102700597,320.0571487436491 511.000005300556,320.0571487436491 511.000005300556,320.0571487436491 510.2857195741061,322.91429164944884 510.2857195741061,322.91429164944884 510.2857195741061,325.05714882879863 509.5714338476562,325.77143455524845 509.5714338476562,326.4857202816984 509.5714338476562,327.2000060081483 509.5714338476562,327.91429173459824 508.8571481212063,328.62857746104817 508.8571481212063,328.62857746104817 508.8571481212063,329.3428631874981 508.8571481212063,329.3428631874981 508.8571481212063,330.057148913948 508.1428623947563,330.77143464039796 507.42857666830633,331.4857203668479 506.71429094185646,332.2000060932978 506.71429094185646,332.91429181974775 506.00000521540653,333.6285775461977 505.28571948895666,334.3428632726476 505.28571948895666,334.3428632726476 505.28571948895666,334.3428632726476 505.28571948895666,333.6285775461977 " style="color: rgb(178, 122, 204);"/><polyline fill="#b27acc" stroke-dashoffset="" fill-rule="nonzero" marker-start="" marker-mid="" marker-end="" id="svg_11" points="512.4285767534559,313.62857720559975 513.1428624799058,313.62857720559975 513.1428624799058,314.3428629320497 513.8571482063558,314.3428629320497 513.8571482063558,315.77143438494954 514.5714339328057,317.2000058378494 514.5714339328057,317.2000058378494 514.5714339328057,317.2000058378494 514.5714339328057,317.91429156429933 514.5714339328057,318.62857729074926 514.5714339328057,319.3428630171992 514.5714339328057,320.0571487436491 515.2857196592556,320.0571487436491 515.2857196592556,320.0571487436491 515.2857196592556,320.77143447009905 " style="color: rgb(178, 122, 204);"/><polyline fill="#1aeb1a" stroke-dashoffset="" fill-rule="nonzero" marker-start="" marker-mid="" marker-end="" id="svg_12" points="233.85714343798406,101.48571644997119 233.85714343798406,101.48571644997119 " style="color: rgb(178, 122, 204);"/><polyline fill="#1aeb1a" stroke-dashoffset="" fill-rule="nonzero" marker-start="" marker-mid="" marker-end="" id="svg_13" points="357.4285741138216,128.62857405506844 358.1428598402715,129.34285978151837 " style="color: rgb(178, 122, 204);"/><polyline fill="#1aeb1a" stroke-dashoffset="" fill-rule="nonzero" marker-start="" marker-mid="" marker-end="" id="svg_14" points="358.1428598402715,129.34285978151837 358.1428598402715,129.34285978151837 " style="color: rgb(178, 122, 204);"/><path fill="#b27acc" fill-opacity="1" stroke="none" stroke-opacity="1" stroke-width="1" stroke-dasharray="none" stroke-linejoin="miter" stroke-linecap="butt" stroke-dashoffset="" fill-rule="nonzero" opacity="1" marker-start="" marker-mid="" marker-end="" d="M204,135 C204,135 204,135 204,135 C204,135 204,135 204,135 C204,135 204,135 204,135 C204,135 204,135 204,135 Z" id="svg_15"/><path fill="#b27acc" fill-opacity="1" stroke="none" stroke-opacity="1" stroke-width="1" stroke-dasharray="none" stroke-linejoin="miter" stroke-linecap="butt" stroke-dashoffset="" fill-rule="nonzero" opacity="1" marker-start="" marker-mid="" marker-end="" d="M204,134.5 C204,134.22375690607734 204.22375690607734,134 204.5,134 C204.77624309392266,134 205,134.22375690607734 205,134.5 C205,134.77624309392266 204.77624309392266,135 204.5,135 C204.22375690607734,135 204,134.77624309392266 204,134.5 Z" id="svg_17"/><path fill="#b27acc" fill-opacity="1" stroke="none" stroke-opacity="1" stroke-width="1" stroke-dasharray="none" stroke-linejoin="miter" stroke-linecap="butt" stroke-dashoffset="" fill-rule="nonzero" opacity="1" marker-start="" marker-mid="" marker-end="" d="M643,175.5 C643,175.22375690607734 643.4475138121547,175 644,175 C644.5524861878453,175 645,175.22375690607734 645,175.5 C645,175.77624309392266 644.5524861878453,176 644,176 C643.4475138121547,176 643,175.77624309392266 643,175.5 Z" id="svg_22"/></g></svg>