<?xml version="1.0" standalone="no"?>
<!DOCTYPE svg PUBLIC "-//W3C//DTD SVG 20010904//EN"
 "http://www.w3.org/TR/2001/REC-SVG-20010904/DTD/svg10.dtd">
<svg version="1.0" xmlns="http://www.w3.org/2000/svg"
 width="960.000000pt" height="678.000000pt" viewBox="0 0 960.000000 678.000000"
 preserveAspectRatio="xMidYMid meet">

<g transform="translate(0.000000,678.000000) scale(0.100000,-0.100000)"
fill="#000000" stroke="none">
<path d="M5048 6006 c-37 -13 -121 -53 -187 -89 -66 -36 -141 -73 -168 -83
l-48 -17 -75 49 c-101 65 -173 93 -239 94 -113 0 -189 -46 -256 -155 -38 -63
-46 -70 -71 -68 -161 14 -184 14 -218 3 -88 -29 -137 -104 -144 -220 -6 -97 9
-148 61 -213 65 -79 116 -106 223 -117 149 -17 169 -44 169 -230 0 -69 -2
-168 -4 -220 -3 -52 -1 -110 3 -127 6 -25 4 -33 -6 -33 -26 0 -272 -128 -350
-182 -306 -211 -617 -599 -728 -905 l-23 -63 -92 -44 c-289 -136 -527 -380
-636 -652 -44 -108 -45 -180 -5 -249 41 -70 140 -165 208 -200 54 -28 58 -32
58 -66 0 -59 36 -85 153 -109 77 -16 109 -47 136 -130 26 -81 42 -104 110
-165 64 -56 122 -84 173 -85 l36 0 27 -112 c15 -64 37 -127 51 -147 133 -196
650 -311 1399 -311 657 0 1223 90 1527 241 61 31 86 50 117 91 53 73 90 148
103 216 7 33 22 70 36 87 32 38 61 103 62 134 0 16 18 41 50 72 43 41 50 53
50 87 0 29 -7 45 -27 64 -28 27 -94 59 -148 72 -16 4 -45 14 -63 23 l-32 15
51 59 c33 38 59 59 72 59 41 0 99 22 122 44 32 32 40 104 21 196 -22 105 -69
194 -138 263 -53 54 -58 62 -58 103 0 25 -9 62 -20 85 -12 22 -18 43 -16 48 3
4 39 23 80 40 49 22 76 40 79 53 3 11 1 62 -5 115 -5 52 -8 96 -6 97 56 45
380 266 390 266 16 0 58 -41 58 -57 0 -6 10 -23 22 -38 46 -59 167 -86 207
-46 11 11 25 39 32 63 7 24 20 52 30 62 16 17 22 18 57 8 54 -16 244 -15 317
3 201 47 305 151 305 304 0 68 -42 252 -82 358 -25 67 -75 125 -132 152 -55
27 -86 26 -187 -5 -162 -49 -196 -55 -239 -44 -45 12 -48 23 -29 108 16 69 7
98 -35 112 -44 14 -95 -6 -149 -58 -67 -64 -86 -108 -96 -216 -11 -108 -43
-219 -74 -254 -19 -21 -27 -22 -87 -16 -62 6 -68 4 -98 -21 -45 -38 -59 -90
-42 -162 l12 -57 -128 -123 c-71 -67 -131 -122 -134 -122 -3 -1 -23 33 -44 74
-79 149 -254 362 -440 534 -112 103 -208 175 -341 255 -97 58 -102 63 -93 86
6 15 7 86 3 172 -8 163 -1 204 44 252 38 41 63 48 192 56 94 6 125 12 158 30
48 28 94 83 124 148 44 98 16 245 -63 335 -50 56 -91 76 -199 93 -47 8 -96 20
-109 26 -14 7 -41 48 -69 105 -52 106 -83 137 -183 185 -55 27 -79 32 -155 35
-76 3 -101 0 -157 -21z m285 -49 c96 -44 127 -74 168 -163 54 -117 80 -139
177 -153 43 -6 95 -16 115 -22 87 -24 156 -126 165 -241 5 -75 -5 -109 -50
-174 -47 -66 -89 -84 -225 -93 -131 -9 -163 -20 -210 -75 -50 -56 -57 -91 -49
-262 5 -104 3 -159 -5 -176 -27 -61 -139 -83 -336 -68 -70 6 -179 15 -241 20
-77 6 -161 5 -260 -3 -433 -34 -462 -19 -446 228 15 224 12 294 -16 350 -27
55 -74 92 -124 99 -158 22 -167 24 -211 60 -84 69 -107 130 -96 245 10 94 33
134 95 162 51 23 112 24 188 3 59 -17 59 -17 84 7 14 13 37 45 50 71 51 101
140 155 238 145 58 -6 119 -33 228 -103 85 -55 76 -56 297 59 85 44 180 89
210 99 78 25 179 20 254 -15z m1841 -1336 c4 -5 -1 -39 -9 -76 -20 -84 -8
-114 50 -133 51 -17 118 -10 215 23 114 39 152 46 194 34 48 -13 99 -59 124
-112 29 -62 92 -307 92 -359 0 -129 -71 -207 -240 -264 -60 -19 -257 -25 -355
-10 -45 7 -52 6 -73 -16 -12 -14 -30 -49 -40 -79 -15 -49 -20 -54 -49 -57 -46
-5 -112 32 -128 71 -16 38 -47 68 -137 131 -88 62 -124 105 -143 170 -12 41
-13 60 -5 82 22 57 36 64 114 58 69 -6 72 -5 99 24 42 44 77 151 87 264 11
115 30 159 96 217 45 40 95 54 108 32z m-3018 -96 c50 -34 86 -39 237 -31 380
18 405 18 575 2 95 -9 203 -16 240 -16 69 0 176 22 199 41 16 14 135 -52 273
-149 113 -80 342 -300 444 -426 191 -236 306 -490 306 -675 l0 -48 -102 -46
c-574 -256 -1142 -355 -1873 -327 -502 19 -864 74 -1232 186 l-82 25 29 45
c38 61 75 156 90 231 14 71 3 107 -41 132 -24 13 -34 13 -97 -2 -38 -9 -73
-17 -76 -17 -8 0 27 87 73 178 86 172 240 371 422 547 121 117 211 186 329
252 64 36 230 118 247 123 1 0 19 -11 39 -25z m2633 -786 c24 -15 22 -16 -155
-141 l-179 -126 -18 40 c-38 89 -43 79 99 214 l129 122 50 -47 c28 -25 61 -53
74 -62z m-3571 -348 c2 -19 -2 -55 -8 -80 -18 -75 -87 -207 -119 -230 -16 -11
-68 -30 -115 -41 -111 -26 -127 -34 -244 -132 -224 -187 -260 -237 -254 -350
3 -43 56 -95 123 -119 l60 -22 -29 -17 c-15 -10 -44 -36 -63 -59 l-36 -41 -51
26 c-58 29 -177 149 -198 200 -19 45 -18 90 5 155 91 265 322 516 607 658 95
48 236 91 284 88 32 -2 35 -5 38 -36z m3068 -333 c10 -18 18 -52 18 -76 1 -53
-16 -69 -83 -77 -25 -3 -64 -10 -86 -16 -22 -5 -72 -13 -112 -18 -120 -15
-160 -52 -188 -177 -28 -119 -96 -168 -235 -169 -80 0 -88 2 -140 35 -48 30
-63 35 -116 34 -49 0 -78 -8 -160 -46 -120 -56 -144 -62 -193 -48 -45 12 -57
28 -100 132 -38 90 -59 112 -108 112 -47 0 -76 -36 -98 -123 -22 -89 -34 -104
-109 -141 -77 -38 -156 -48 -253 -30 -65 12 -70 15 -133 80 -97 101 -152 121
-270 96 -99 -21 -170 -52 -224 -96 -49 -41 -80 -50 -89 -27 -3 8 4 53 16 101
19 79 20 90 6 114 -19 35 -62 55 -99 47 -16 -3 -57 -28 -92 -54 -92 -70 -113
-78 -203 -81 -127 -5 -153 -2 -175 20 -35 35 -25 135 15 142 22 5 23 4 8 -18
-19 -29 -14 -55 12 -64 39 -14 86 10 156 78 38 37 73 66 78 64 6 -2 6 -15 1
-33 -15 -50 -4 -62 50 -57 26 3 67 15 92 26 60 29 131 29 160 0 20 -20 22 -20
34 -4 10 14 21 16 59 10 45 -6 47 -8 41 -36 -3 -15 -17 -45 -30 -65 -29 -43
-26 -53 16 -53 25 0 44 13 97 66 l66 66 75 -7 c113 -9 127 -13 134 -39 9 -36
34 -40 75 -13 20 13 53 27 74 31 36 7 47 19 27 29 -6 3 -5 4 2 3 7 -1 19 -31
26 -67 12 -64 37 -99 69 -99 29 0 89 40 131 86 49 54 61 50 63 -21 l1 -40 9
38 c20 83 -32 103 -81 32 -56 -81 -148 -107 -170 -49 -10 24 -13 130 -4 108 4
-10 83 -4 199 15 42 7 28 9 -80 11 -71 1 -161 6 -200 10 -64 7 -61 7 25 4 52
-2 167 -4 255 -5 120 0 153 -3 130 -11 -16 -5 -35 -10 -41 -10 -6 -1 -11 -6
-11 -12 0 -6 -4 -20 -8 -31 -7 -16 -3 -14 17 7 14 15 41 30 61 33 40 8 160 2
197 -10 20 -6 23 -5 13 5 -6 7 -26 15 -45 19 -22 5 15 10 112 14 125 6 316 27
480 52 40 7 43 6 26 -7 -13 -10 -19 -29 -20 -62 -1 -39 -7 -53 -29 -72 -16
-13 -24 -24 -18 -24 21 0 61 62 61 95 0 72 55 84 121 27 52 -46 81 -62 106
-61 10 0 5 5 -12 10 -16 5 -52 29 -78 53 -38 36 -44 45 -30 49 10 2 -4 2 -32
1 l-50 -3 45 10 c25 6 92 21 149 35 57 13 106 23 108 20 2 -2 -40 -15 -94 -30
l-98 -26 90 6 c50 3 101 8 115 10 22 4 23 3 5 -5 -17 -8 -17 -10 -3 -10 9 -1
22 7 27 17 9 15 10 14 11 -6 0 -49 -53 -116 -106 -132 -25 -7 -26 -8 -6 -9 30
-1 107 70 118 111 9 29 17 35 74 55 36 12 78 22 93 22 34 1 183 38 209 52 22
12 23 35 2 47 -13 7 -11 12 12 27 26 17 27 19 9 26 -17 6 -17 8 -3 8 10 1 25
-13 34 -31z m-56 -48 c12 -7 7 -12 -20 -23 -19 -8 -51 -18 -70 -21 l-35 -7 37
21 c20 11 40 24 43 30 8 12 25 13 45 0z m-3087 -7 c-7 -2 -21 -2 -30 0 -10 3
-4 5 12 5 17 0 24 -2 18 -5z m-80 -10 c-7 -2 -19 -2 -25 0 -7 3 -2 5 12 5 14
0 19 -2 13 -5z m-59 -12 c4 -5 -3 -7 -14 -4 -23 6 -26 13 -6 13 8 0 17 -4 20
-9z m-29 -51 l84 -40 -31 -50 c-17 -27 -33 -68 -35 -94 -5 -40 -10 -47 -54
-76 -47 -30 -79 -72 -79 -103 0 -8 11 -31 25 -51 14 -20 25 -39 25 -41 0 -2
-24 -1 -54 2 -38 4 -67 1 -94 -10 -36 -14 -45 -14 -98 -1 -76 20 -119 47 -134
84 -17 42 -6 90 34 142 40 52 303 277 324 278 2 0 41 -18 87 -40z m2862 4 c-3
-3 -12 -4 -19 -1 -8 3 -5 6 6 6 11 1 17 -2 13 -5z m-2270 -40 c-3 -3 -12 -4
-19 -1 -8 3 -5 6 6 6 11 1 17 -2 13 -5z m50 -10 c-3 -3 -12 -4 -19 -1 -8 3 -5
6 6 6 11 1 17 -2 13 -5z m50 -10 c-3 -3 -12 -4 -19 -1 -8 3 -5 6 6 6 11 1 17
-2 13 -5z m-557 -18 c0 -2 -8 -10 -17 -17 -16 -13 -17 -12 -4 4 13 16 21 21
21 13z m155 -37 c-60 -62 -115 -99 -147 -99 -22 0 -28 5 -28 21 0 25 52 79 75
79 9 0 28 9 42 20 15 12 41 20 61 20 l36 0 -39 -41z m522 35 c-3 -3 -12 -4
-19 -1 -8 3 -5 6 6 6 11 1 17 -2 13 -5z m2463 -19 c22 -14 40 -27 40 -30 0 -3
-66 -54 -146 -114 -313 -233 -627 -390 -1165 -581 l-146 -52 -69 30 c-254 111
-681 227 -1144 311 -109 20 -185 39 -225 57 -63 29 -57 29 -265 23 -103 -3
-144 7 -185 43 -41 35 -44 57 -13 85 44 40 64 45 84 21 33 -36 77 -48 182 -48
122 0 164 14 250 80 76 59 107 70 130 46 14 -14 15 -22 2 -73 -7 -32 -14 -80
-14 -107 -1 -42 3 -52 26 -69 34 -26 62 -18 128 34 54 43 158 84 239 95 78 10
118 -7 195 -86 82 -84 133 -104 261 -103 91 1 166 25 234 74 44 31 58 56 88
153 32 106 72 98 119 -26 14 -38 37 -82 50 -98 56 -66 155 -65 285 1 73 37 93
43 149 43 58 1 71 -3 119 -34 51 -33 60 -35 136 -35 71 0 89 4 148 33 84 42
111 77 136 177 26 103 46 123 137 137 54 8 175 32 192 37 1 1 20 -10 42 -24z
m-2393 9 c-3 -3 -12 -4 -19 -1 -8 3 -5 6 6 6 11 1 17 -2 13 -5z m-417 -23 l55
-7 -39 -17 c-21 -10 -56 -20 -78 -23 -34 -6 -38 -4 -38 14 0 35 11 54 29 46 9
-3 41 -9 71 -13z m493 12 c-7 -2 -19 -2 -25 0 -7 3 -2 5 12 5 14 0 19 -2 13
-5z m90 -10 c-7 -2 -19 -2 -25 0 -7 3 -2 5 12 5 14 0 19 -2 13 -5z m110 -10
c-13 -2 -33 -2 -45 0 -13 2 -3 4 22 4 25 0 35 -2 23 -4z m-275 -33 c17 0 32
-4 32 -8 0 -5 -24 -34 -53 -65 -39 -42 -60 -57 -80 -57 -33 0 -34 9 -2 56 14
20 25 48 25 62 0 20 4 23 23 18 12 -3 37 -6 55 -6z m372 -25 c-7 -9 -26 -25
-42 -36 -23 -17 -32 -18 -43 -9 -29 24 -18 41 25 38 22 -1 45 3 52 10 17 17
23 15 8 -3z m2165 -35 c3 -6 -1 -7 -9 -4 -18 7 -21 14 -7 14 6 0 13 -4 16 -10z
m-151 -236 c3 -8 2 -12 -4 -9 -6 3 -10 10 -10 16 0 14 7 11 14 -7z m-2862 -71
c119 -53 93 -85 -93 -113 -94 -14 -127 -23 -143 -39 -18 -19 -19 -23 -5 -36 8
-8 44 -20 79 -27 81 -14 115 -44 125 -110 14 -90 -54 -247 -125 -291 -52 -33
-151 -30 -211 5 -78 46 -133 114 -158 196 -31 104 -66 136 -173 159 -97 21
-122 40 -113 86 14 68 106 146 217 183 47 15 50 15 133 -11 96 -31 124 -30
245 10 89 30 135 27 222 -12z m2673 -48 c49 -14 103 -26 120 -26 30 -2 30 -2
3 -6 -23 -4 -215 41 -227 53 -9 8 16 3 104 -21z m-100 -5 c17 -7 15 -9 -13 -9
-18 -1 -49 -8 -69 -16 -53 -22 -54 -17 -3 10 49 26 56 28 85 15z m317 -37
c-33 -46 -88 -94 -103 -91 -8 2 -13 -3 -11 -10 5 -24 -187 -126 -205 -108 -3
3 0 6 8 6 20 0 155 66 164 80 5 8 2 9 -11 2 -17 -9 -319 -54 -655 -97 -64 -8
-129 -19 -144 -25 -15 -6 -30 -9 -32 -6 -2 2 13 10 34 17 21 6 80 32 131 55
52 24 168 64 258 89 158 43 170 45 302 45 124 0 142 3 187 24 28 14 43 25 35
27 -8 1 1 5 20 9 19 4 36 8 38 9 2 0 -6 -11 -16 -26z m-2745 -78 c20 -14 33
-44 47 -108 4 -15 40 -64 81 -109 42 -44 72 -84 69 -87 -4 -3 -9 -1 -11 6 -2
7 -12 9 -21 6 -13 -4 -14 -3 -4 5 11 7 7 17 -18 46 -25 28 -37 35 -56 30 -14
-4 -31 -1 -41 7 -14 12 -14 9 2 -18 11 -18 31 -37 45 -43 24 -10 24 -10 -5 -4
-16 3 -74 19 -127 36 l-98 31 0 36 c0 20 -9 56 -20 80 -11 24 -19 45 -17 47
11 11 116 54 132 54 11 0 30 -7 42 -15z m2783 -61 c28 -26 62 -71 76 -100 23
-46 26 -64 22 -123 -5 -86 -40 -144 -108 -178 -62 -32 -91 -29 -166 16 -81 49
-127 58 -183 35 -50 -20 -77 -66 -110 -191 -39 -146 -74 -210 -130 -233 -63
-26 -88 0 -131 137 -18 57 -61 107 -117 134 -38 18 -71 24 -192 30 -80 4 -174
13 -208 20 -61 12 -61 12 -138 -24 -49 -24 -99 -58 -138 -95 -78 -75 -141
-111 -205 -119 -69 -8 -139 26 -244 119 -45 41 -101 86 -123 101 -95 63 -277
57 -507 -15 -111 -35 -147 -42 -218 -43 -109 0 -150 18 -181 81 l-21 45 46 90
c25 50 46 97 46 105 0 21 10 19 180 -36 155 -51 156 -51 435 -76 l280 -26 308
18 307 17 23 -20 c39 -36 91 -63 123 -63 42 0 79 31 116 96 16 30 32 54 34 54
3 0 85 23 184 50 l179 50 158 0 c100 0 184 6 228 15 91 19 201 74 262 130 26
24 52 44 56 45 4 0 30 -21 57 -46z m-2376 -66 c-10 -18 -25 -60 -34 -93 -23
-83 -44 -85 -116 -10 -29 31 -54 59 -54 61 0 2 18 -5 41 -16 60 -31 79 -24
114 41 17 31 37 64 45 74 14 17 15 17 18 -3 2 -11 -5 -36 -14 -54z m2546 13
c33 -24 36 -45 10 -81 -27 -38 -36 -38 -44 3 -3 19 -20 55 -36 80 l-30 47 38
-15 c20 -9 48 -24 62 -34z m-2282 0 c48 -17 98 -32 112 -34 l25 -4 -26 -2
c-15 0 -45 6 -69 14 -31 11 -52 12 -83 5 -23 -5 -62 -10 -86 -12 -41 -2 -45
-5 -62 -43 -10 -22 -19 -34 -19 -27 0 25 41 93 52 86 6 -4 8 -3 4 4 -7 12 30
42 52 42 8 0 53 -13 100 -29z m1735 -28 c-7 -2 -21 -2 -30 0 -10 3 -4 5 12 5
17 0 24 -2 18 -5z m-363 -13 c-30 -4 -97 -20 -148 -35 -52 -15 -95 -25 -98
-23 -9 9 213 66 256 66 l45 -1 -55 -7z m293 3 c-13 -2 -35 -2 -50 0 -16 2 -5
4 22 4 28 0 40 -2 28 -4z m-135 -10 c-15 -2 -42 -2 -60 0 -18 2 -6 4 27 4 33
0 48 -2 33 -4z m-1276 -34 c46 -17 97 -40 112 -52 l27 -22 -43 -1 c-24 -1
-135 -14 -248 -30 -198 -28 -203 -29 -140 -35 36 -4 115 -8 175 -10 94 -2 100
-3 40 -7 -67 -4 -382 15 -417 24 -16 5 -16 8 4 47 11 23 33 52 49 65 39 31
133 50 255 51 90 1 112 -3 186 -30z m779 -17 c-8 -15 -8 -22 2 -25 7 -3 5 -6
-5 -6 -10 -1 -18 1 -18 4 0 10 24 55 27 51 3 -2 0 -13 -6 -24z m64 -12 c-11
-5 -27 -9 -35 -9 -9 0 -8 4 5 9 11 5 27 9 35 9 9 0 8 -4 -5 -9z m-205 -33 c0
-2 -12 -14 -27 -28 l-28 -24 24 28 c23 25 31 32 31 24z m-412 -74 c-10 -2 -26
-2 -35 0 -10 3 -2 5 17 5 19 0 27 -2 18 -5z m-115 -10 c-18 -2 -48 -2 -65 0
-18 2 -4 4 32 4 36 0 50 -2 33 -4z m1558 -148 c58 -36 64 -37 126 -32 l64 5
-7 -32 c-9 -42 -49 -121 -91 -178 -27 -37 -51 -55 -106 -82 -521 -244 -1781
-311 -2483 -131 -190 49 -335 121 -380 190 -14 22 -69 224 -62 230 2 1 16 9
33 18 l30 15 21 -41 c27 -55 84 -93 161 -108 56 -12 73 -11 165 10 l103 22
305 -124 c416 -169 362 -154 477 -133 159 30 512 120 746 191 l218 66 33 -21
c35 -21 60 -65 91 -160 19 -57 64 -110 94 -110 27 1 91 27 113 47 39 35 66 90
108 223 50 161 69 185 136 177 27 -3 68 -19 105 -42z m-1956 -64 c22 -10 76
-50 120 -90 104 -92 145 -121 206 -141 l50 -17 -78 -16 -78 -15 -314 126
c-313 126 -314 126 -281 140 85 34 311 42 375 13z m1020 -21 c50 -6 106 -8
125 -5 50 10 29 -6 -38 -27 -164 -52 -552 -158 -577 -158 -4 0 17 16 46 36 30
20 68 53 87 75 18 21 61 52 95 69 68 34 78 34 262 10z"/>
<path d="M7463 4289 c-57 -27 -103 -53 -103 -59 0 -16 9 -13 118 37 56 25 102
52 102 60 0 18 -2 17 -117 -38z"/>
<path d="M7552 4119 c-57 -27 -100 -54 -97 -59 4 -6 18 -5 38 4 121 51 177 81
177 92 0 19 -2 19 -118 -37z"/>
<path d="M7625 3920 c-54 -20 -101 -43 -103 -49 -6 -17 5 -14 115 26 57 21
103 44 103 51 0 16 0 16 -115 -28z"/>
<path d="M5200 4305 c0 -9 14 -16 38 -20 163 -26 235 -55 314 -125 51 -44 95
-125 118 -215 15 -58 26 -73 40 -59 12 12 -20 136 -51 197 -32 63 -120 144
-192 178 -105 49 -267 76 -267 44z"/>
<path d="M4110 4276 c-195 -58 -309 -164 -370 -342 -11 -31 -17 -60 -14 -65
14 -23 32 -4 48 49 28 88 65 149 124 203 74 68 144 101 290 139 25 6 42 17 42
25 0 20 -31 18 -120 -9z"/>
<path d="M5150 4116 c0 -7 20 -21 44 -30 110 -42 165 -113 174 -223 5 -64 26
-101 38 -69 10 27 -5 124 -27 177 -25 57 -73 102 -143 135 -58 27 -86 30 -86
10z"/>
<path d="M4204 4059 c-3 -6 26 -44 67 -88 41 -42 87 -90 102 -107 l28 -31 -25
4 c-27 5 -160 -9 -281 -31 -52 -9 -71 -17 -73 -29 -4 -22 9 -22 144 4 74 13
139 19 203 17 59 -2 96 1 98 7 4 12 -233 265 -247 265 -5 0 -12 -5 -16 -11z"/>
<path d="M4987 3953 c-58 -65 -4 -159 79 -139 54 14 64 119 14 146 -29 16 -75
12 -93 -7z m108 -83 c0 -18 -6 -26 -23 -28 -13 -2 -25 3 -28 12 -10 26 4 48
28 44 17 -2 23 -10 23 -28z"/>
<path d="M5104 3382 c-62 -70 -145 -115 -211 -115 -40 0 -49 4 -89 46 -57 60
-99 64 -164 15 -24 -18 -52 -39 -62 -47 -26 -19 -98 -17 -143 5 -23 11 -51 38
-76 76 -40 59 -62 69 -67 32 -3 -24 63 -111 106 -141 38 -25 107 -38 155 -29
19 3 60 27 92 51 31 25 64 45 73 45 8 0 39 -22 68 -50 47 -45 57 -50 98 -50
92 0 208 64 271 150 34 47 39 70 12 70 -7 0 -35 -26 -63 -58z"/>
<path d="M5408 2833 c7 -3 16 -2 19 1 4 3 -2 6 -13 5 -11 0 -14 -3 -6 -6z"/>
<path d="M5348 2823 c7 -3 16 -2 19 1 4 3 -2 6 -13 5 -11 0 -14 -3 -6 -6z"/>
<path d="M5268 2813 c7 -3 16 -2 19 1 4 3 -2 6 -13 5 -11 0 -14 -3 -6 -6z"/>
<path d="M4918 2783 c6 -2 18 -2 25 0 6 3 1 5 -13 5 -14 0 -19 -2 -12 -5z"/>
<path d="M5235 2758 c-9 -13 -30 -48 -48 -78 -44 -75 -60 -76 -126 -4 -29 33
-44 45 -32 27 34 -50 81 -93 101 -93 20 0 50 36 94 113 15 26 33 47 41 47 8 0
33 -18 56 -41 22 -22 43 -39 45 -36 7 7 -85 87 -100 87 -8 0 -22 -10 -31 -22z"/>
<path d="M5696 2707 c4 -20 1 -34 -12 -50 l-19 -22 23 19 c24 21 28 42 12 66
-8 11 -9 8 -4 -13z"/>
<path d="M5499 2682 c15 -28 56 -56 73 -49 8 3 6 6 -5 6 -11 1 -33 16 -50 34
-21 22 -27 25 -18 9z"/>
<path d="M5598 2623 c7 -3 16 -2 19 1 4 3 -2 6 -13 5 -11 0 -14 -3 -6 -6z"/>
<path d="M4013 1923 c15 -2 39 -2 55 0 15 2 2 4 -28 4 -30 0 -43 -2 -27 -4z"/>
</g>
</svg>
